<?xml version="1.0" standalone="no"?>
<!DOCTYPE svg PUBLIC "-//W3C//DTD SVG 20010904//EN"
 "http://www.w3.org/TR/2001/REC-SVG-20010904/DTD/svg10.dtd">
<svg version="1.0" xmlns="http://www.w3.org/2000/svg"
 width="1200.000000pt" height="1200.000000pt" viewBox="0 0 1200.000000 1200.000000"
 preserveAspectRatio="xMidYMid meet">
<metadata>
Created by potrace 1.14, written by Peter Selinger 2001-2017
</metadata>
<g transform="translate(0.000000,1200.000000) scale(0.100000,-0.100000)"
fill="#000000" stroke="none">
<path d="M5930 11208 c-45 -11 -84 -17 -140 -23 -58 -6 -73 -9 -85 -16 -11 -7
-140 -50 -158 -53 -7 -1 -34 -13 -62 -26 -27 -13 -53 -22 -57 -22 -5 1 -8 -2
-8 -7 0 -5 -11 -12 -25 -15 -14 -4 -25 -11 -25 -17 0 -6 -5 -7 -10 -4 -6 3
-13 -1 -16 -9 -3 -9 -10 -13 -15 -10 -5 3 -12 -2 -15 -10 -3 -9 -12 -16 -20
-16 -8 0 -19 -9 -26 -20 -7 -11 -16 -20 -21 -20 -4 0 -20 -11 -35 -25 -15 -14
-35 -25 -44 -25 -10 0 -18 -5 -18 -11 0 -5 -5 -7 -10 -4 -6 3 -13 -1 -16 -9
-3 -9 -10 -13 -15 -10 -5 3 -9 -1 -9 -9 0 -7 -9 -23 -20 -34 -11 -12 -21 -27
-22 -34 -2 -6 -23 -33 -48 -59 -25 -26 -56 -62 -70 -80 -14 -18 -38 -48 -55
-66 -49 -54 -81 -99 -65 -90 8 4 7 1 -4 -8 -10 -8 -15 -19 -12 -24 3 -6 0 -12
-6 -15 -10 -3 -9 -8 2 -22 12 -15 12 -17 1 -10 -11 6 -13 4 -8 -8 4 -10 1 -17
-5 -17 -6 0 -8 -3 -5 -7 4 -3 1 -13 -6 -21 -10 -13 -9 -14 3 -7 11 7 10 2 -4
-19 -10 -16 -13 -26 -8 -22 6 3 13 2 16 -3 3 -5 0 -11 -7 -14 -13 -5 -15 -56
-3 -75 4 -7 4 -16 1 -22 -3 -5 -2 -10 2 -10 5 0 16 -12 24 -27 16 -26 16 -27
-27 -70 -24 -23 -46 -43 -49 -43 -4 0 -13 -7 -21 -15 -9 -8 -13 -15 -10 -15 3
0 -5 -30 -18 -67 -13 -38 -24 -86 -25 -108 -1 -22 -6 -44 -11 -49 -14 -14 -12
-50 2 -64 6 -6 12 -26 13 -44 1 -18 5 -58 10 -88 4 -30 9 -62 10 -70 1 -8 5
-26 8 -40 3 -14 9 -45 12 -70 3 -25 7 -61 10 -80 3 -19 7 -53 9 -75 2 -22 8
-53 13 -70 4 -16 8 -39 8 -50 0 -11 3 -22 7 -25 4 -3 8 -26 9 -50 1 -25 4 -49
7 -54 2 -4 6 -27 7 -50 3 -47 14 -108 20 -115 3 -2 0 -10 -6 -17 -7 -9 -24
-11 -54 -8 -35 5 -45 3 -57 -15 -8 -11 -17 -19 -19 -16 -3 2 -6 -9 -7 -25 -1
-17 2 -30 8 -30 5 0 9 -3 8 -7 -1 -5 5 -21 12 -38 7 -16 14 -34 15 -40 0 -5 4
-26 8 -45 11 -56 16 -137 18 -284 1 -99 6 -156 19 -201 15 -53 22 -119 21
-198 0 -10 -12 -35 -28 -55 -20 -27 -28 -49 -29 -86 -2 -43 1 -53 28 -78 16
-15 34 -26 39 -23 7 5 30 -26 35 -50 2 -5 5 -20 8 -32 3 -13 8 -33 11 -45 2
-13 7 -35 11 -50 3 -16 9 -28 14 -28 4 0 11 -16 14 -35 4 -19 14 -42 24 -51 9
-10 16 -19 14 -21 -6 -7 11 -53 19 -53 5 0 9 -3 8 -7 -2 -16 14 -53 22 -53 5
0 8 -3 7 -7 -3 -13 25 -63 34 -63 5 0 7 -4 4 -9 -3 -4 2 -18 12 -29 46 -54 52
-63 52 -72 0 -6 3 -10 8 -10 4 0 13 -13 20 -30 8 -16 27 -38 43 -47 16 -10 29
-26 29 -36 0 -10 5 -15 10 -12 6 3 10 0 10 -9 0 -8 4 -16 8 -18 14 -6 52 -66
52 -82 0 -9 4 -16 10 -16 5 0 9 -3 8 -7 -1 -5 2 -26 7 -48 4 -22 7 -46 6 -52
-1 -7 2 -13 6 -13 4 0 9 -10 9 -22 1 -13 7 -50 14 -84 l13 -60 -34 -50 c-40
-57 -45 -94 -25 -178 l14 -60 -38 -45 c-21 -25 -43 -63 -50 -84 -6 -20 -15
-35 -20 -32 -4 3 -10 -2 -14 -10 -3 -8 -14 -15 -24 -15 -10 0 -23 -5 -28 -10
-6 -6 -20 -12 -31 -14 -36 -7 -123 -48 -123 -58 0 -5 -4 -7 -9 -3 -5 3 -15 0
-23 -7 -18 -18 -230 -108 -253 -108 -4 0 -20 -9 -36 -21 -16 -11 -29 -17 -29
-12 0 4 -4 3 -8 -3 -14 -21 -171 -86 -242 -100 -13 -3 -30 -10 -37 -16 -8 -6
-16 -8 -20 -5 -3 3 -20 0 -38 -8 -19 -7 -36 -11 -39 -7 -3 3 -6 0 -6 -6 0 -7
-3 -11 -7 -10 -25 6 -180 -92 -167 -105 3 -3 -14 -11 -37 -17 -24 -7 -52 -19
-61 -27 -10 -9 -18 -13 -18 -8 0 4 -6 2 -13 -4 -8 -6 -43 -20 -78 -31 -72 -22
-103 -45 -122 -93 -18 -42 -38 -57 -83 -63 -65 -8 -119 -60 -144 -139 -7 -22
-19 -44 -27 -48 -7 -5 -11 -12 -8 -18 4 -5 0 -9 -7 -9 -7 0 -23 -15 -35 -33
-13 -18 -31 -42 -40 -53 -10 -11 -29 -35 -42 -54 -13 -19 -30 -42 -38 -50 -30
-33 -73 -93 -73 -102 0 -5 -4 -6 -10 -3 -6 3 -10 0 -10 -9 0 -8 -13 -27 -30
-43 -16 -15 -30 -34 -30 -40 0 -7 -6 -13 -14 -13 -12 0 -39 -55 -41 -82 0 -4
-8 -16 -17 -28 -10 -11 -21 -32 -24 -47 -4 -16 -15 -39 -24 -53 -10 -14 -18
-28 -19 -32 -1 -5 -15 -38 -32 -75 -45 -99 -54 -120 -89 -203 -17 -41 -41 -83
-52 -93 -11 -9 -17 -17 -13 -17 4 0 -4 -9 -18 -20 -29 -23 -68 -74 -71 -93 -1
-7 -4 -16 -8 -22 -3 -5 -5 -32 -5 -60 0 -32 -8 -68 -23 -100 -13 -27 -23 -53
-22 -56 1 -4 -8 -15 -18 -24 -11 -10 -20 -26 -20 -37 0 -10 -4 -18 -10 -18 -5
0 -10 -5 -10 -10 0 -11 -33 -60 -62 -94 -10 -10 -15 -23 -12 -28 3 -4 1 -8 -3
-8 -5 0 -27 -52 -48 -116 -25 -74 -49 -126 -65 -143 -29 -29 -80 -67 -89 -65
-9 2 -86 -81 -90 -97 -2 -8 -4 -19 -5 -26 -1 -7 -5 -16 -9 -19 -4 -4 -7 -14
-7 -22 0 -16 -39 -51 -58 -52 -8 0 -10 -5 -6 -12 5 -8 2 -9 -9 -5 -10 3 -17 2
-17 -4 0 -5 -11 -14 -25 -19 -14 -5 -28 -16 -31 -25 -3 -8 -10 -12 -15 -9 -5
3 -12 -2 -15 -10 -3 -9 -11 -16 -18 -16 -6 0 -20 -13 -31 -29 -10 -16 -22 -28
-25 -27 -3 1 -15 -8 -27 -21 -12 -13 -20 -23 -17 -23 3 0 -2 -7 -10 -15 -17
-18 -31 -66 -41 -138 -3 -26 -10 -71 -16 -100 -5 -29 -12 -65 -15 -81 -10 -56
-32 -92 -100 -163 -38 -40 -68 -73 -65 -73 2 0 -15 -10 -39 -23 -68 -36 -72
-48 -46 -147 12 -47 20 -94 17 -105 -4 -11 -24 -56 -46 -100 -47 -96 -49 -103
-24 -118 10 -6 19 -16 19 -20 0 -22 447 -446 533 -506 12 -8 28 -22 37 -30 28
-26 60 -51 60 -47 0 3 13 -8 29 -22 61 -58 90 -80 95 -74 3 3 6 0 6 -6 0 -7 5
-12 11 -12 6 0 32 -17 58 -38 25 -21 61 -47 79 -58 17 -10 32 -23 32 -28 0 -5
3 -7 6 -3 3 3 14 -3 24 -13 10 -10 40 -31 66 -46 27 -15 53 -34 57 -41 4 -7
12 -13 17 -13 8 0 71 -38 95 -58 6 -4 25 -15 43 -22 17 -8 32 -17 32 -20 0 -3
21 -17 48 -30 26 -14 49 -27 52 -30 3 -3 25 -16 50 -29 25 -14 47 -27 50 -31
6 -7 421 -215 429 -215 16 0 71 -29 71 -36 0 -5 3 -8 8 -7 4 1 23 -4 42 -11
19 -8 37 -15 40 -16 19 -7 68 -27 85 -34 38 -17 206 -82 223 -87 9 -2 91 -29
181 -59 l164 -55 1746 0 c1521 0 1750 2 1767 15 10 8 27 15 37 15 9 0 25 4 35
9 24 14 185 66 195 63 4 -1 7 2 7 8 0 5 8 10 18 10 9 0 89 30 177 66 88 36
170 68 183 71 12 3 22 9 22 14 0 5 11 9 25 9 14 0 25 3 25 8 0 7 92 48 99 43
2 -1 7 1 10 6 7 9 151 80 165 81 5 0 12 4 15 9 3 4 27 18 53 31 26 13 50 27
53 33 4 5 10 7 15 4 4 -3 13 2 20 10 7 8 18 15 25 15 7 0 24 9 38 20 14 11 32
20 41 20 9 0 19 7 22 15 4 8 11 15 16 15 11 0 159 87 168 99 3 3 22 15 43 25
20 11 37 23 37 28 0 5 5 6 10 3 6 -3 10 -1 10 4 0 6 6 11 14 11 8 0 16 4 18 8
2 4 36 29 76 56 40 26 79 54 87 63 8 8 15 12 15 8 0 -4 7 1 16 9 8 9 37 30 62
48 26 18 52 37 58 43 7 5 24 19 39 29 14 11 36 28 48 38 12 10 27 21 32 25 51
39 113 91 126 105 9 10 19 15 23 11 3 -3 6 -2 6 4 0 6 21 27 47 47 25 20 42
36 37 36 -5 1 1 6 13 13 11 7 45 35 75 63 l54 51 0 119 c1 66 4 137 7 159 3
22 8 57 11 77 3 21 10 58 16 83 6 25 13 62 16 81 3 20 8 46 10 58 6 28 12 83
19 181 3 44 9 96 14 115 5 19 12 58 16 85 8 62 13 90 15 90 2 0 7 24 14 72 3
21 7 47 9 58 3 11 8 47 12 80 4 32 9 68 12 80 8 38 10 400 2 465 -4 36 -11 92
-14 125 -6 57 -8 72 -19 155 -3 19 -7 57 -10 84 -3 26 -21 80 -40 120 -47 97
-66 146 -58 146 4 0 1 4 -5 8 -7 5 -17 28 -22 53 -5 24 -12 55 -16 69 -4 14
-8 48 -11 75 -2 28 -9 75 -15 105 -7 30 -13 66 -14 80 -5 45 -15 114 -20 140
-3 14 -8 41 -11 60 -7 38 -12 60 -18 88 -21 87 -29 119 -33 132 -4 8 -8 28
-10 43 -2 16 -13 45 -25 65 -11 20 -22 45 -24 56 -2 12 -8 22 -14 24 -6 2 -8
8 -4 13 3 5 0 9 -7 9 -7 0 -9 3 -6 6 7 7 -43 107 -55 112 -5 2 -8 8 -8 13 0 5
-11 27 -25 49 -14 22 -23 40 -20 40 3 0 -2 8 -11 18 -9 9 -38 49 -65 87 -59
83 -107 141 -171 208 -27 26 -48 53 -48 58 0 5 -4 9 -10 9 -5 0 -19 10 -32 23
-13 12 -46 40 -73 62 -28 21 -52 42 -55 45 -3 3 -26 21 -52 40 -27 18 -48 37
-48 42 0 4 -6 8 -12 8 -7 0 -29 14 -48 30 -19 16 -40 30 -46 30 -7 0 -15 7
-18 16 -3 8 -10 12 -16 9 -5 -3 -10 -1 -10 4 0 6 -5 11 -10 11 -6 0 -20 9 -32
20 -12 11 -28 20 -35 20 -7 0 -13 4 -13 9 0 5 -10 13 -22 17 -13 4 -25 10 -28
14 -6 10 -255 130 -268 130 -5 0 -15 7 -22 15 -7 8 -16 12 -21 9 -5 -3 -9 0
-9 6 0 6 -4 8 -10 5 -5 -3 -10 -2 -10 3 0 5 -13 15 -30 22 -16 7 -30 16 -30
20 0 4 -13 13 -30 20 -16 7 -30 16 -30 21 0 5 -4 9 -9 9 -6 0 -25 14 -43 30
-18 17 -38 30 -46 30 -7 0 -10 5 -7 10 3 6 1 10 -5 10 -6 0 -21 10 -34 23 -13
12 -38 33 -55 47 -18 14 -42 34 -54 45 -12 12 -44 36 -72 55 -27 18 -52 37
-55 40 -7 9 -201 104 -218 106 -8 2 -21 6 -30 10 -9 4 -21 8 -27 10 -5 1 -27
9 -47 18 -21 9 -38 13 -38 10 0 -4 -6 -1 -14 5 -8 6 -18 11 -22 10 -5 -1 -12
0 -16 1 -5 1 -11 3 -15 4 -41 10 -54 21 -65 59 -7 23 -17 45 -23 49 -5 4 -7 8
-3 8 4 0 -1 20 -12 45 -11 25 -19 46 -19 48 1 7 -26 78 -42 109 -5 10 -9 26
-9 36 0 10 -4 22 -8 27 -5 6 -19 37 -32 70 -13 33 -27 65 -32 71 -4 6 -6 13
-4 15 2 2 7 36 11 74 4 39 8 81 11 95 2 14 6 50 9 80 3 30 10 69 15 85 5 17
10 41 12 55 2 14 6 27 10 30 4 3 9 23 12 45 2 22 5 40 6 40 1 0 4 19 6 43 4
42 11 87 14 87 0 0 3 19 5 43 6 69 16 75 110 68 61 -5 86 -3 105 9 14 8 21 14
17 15 -4 0 1 10 13 22 11 12 21 28 21 35 1 7 2 19 3 26 1 6 -2 26 -7 42 -5 17
-9 35 -9 40 0 15 10 64 16 73 2 4 7 26 10 47 3 22 9 58 12 80 13 75 3 533 -12
557 -3 4 -1 8 4 8 5 0 9 36 8 81 -1 76 -3 82 -29 103 -26 21 -77 30 -77 14 0
-4 -3 -8 -7 -7 -17 2 -52 -14 -48 -21 6 -10 -15 -8 -32 3 -8 5 -9 15 -4 30 8
20 16 77 28 182 2 22 6 56 9 75 4 34 9 103 18 240 2 36 5 70 6 75 1 6 2 12 1
15 -3 8 -9 84 -16 195 -3 55 -8 112 -10 125 -3 14 -8 41 -11 60 -2 19 -8 49
-11 65 -4 17 -7 33 -7 37 -1 3 -4 10 -8 14 -5 4 -8 17 -8 29 0 12 -3 25 -7 29
-4 4 -9 30 -11 59 -2 29 -10 59 -18 68 -8 9 -12 18 -9 21 3 3 -6 17 -20 32
-14 15 -23 32 -20 37 4 5 2 9 -3 9 -5 0 -12 8 -16 18 -7 21 -34 67 -64 110
-13 17 -20 32 -16 32 4 0 -7 14 -24 30 -18 17 -29 30 -26 30 8 0 -40 52 -146
156 -52 52 -113 112 -135 134 -22 22 -46 40 -53 40 -6 0 -12 5 -12 10 0 6 -4
10 -9 10 -5 0 -26 8 -47 17 -22 9 -41 17 -44 18 -3 1 -18 7 -33 13 -15 7 -31
11 -35 10 -4 -1 -16 3 -27 9 -23 12 -171 63 -185 63 -5 0 -21 5 -37 12 -34 14
-29 13 -80 22 -24 4 -45 12 -49 17 -3 5 -10 7 -15 3 -5 -3 -16 0 -24 6 -8 6
-55 13 -108 14 -52 2 -100 6 -106 11 -7 4 -61 9 -119 11 -59 2 -107 4 -107 4
0 1 -18 4 -40 6 -22 2 -44 5 -50 7 -5 2 -26 0 -45 -5z"/>
</g>
</svg>
